<?xml version="1.0" encoding="UTF-8" standalone="no"?>
<svg
   id="svg2"
   width="128"
   height="128"
   version="1.1"
   viewBox="0 0 128 128"
   sodipodi:docname="add_book.svg"
   inkscape:version="1.3.2 (091e20ef0f, 2023-11-25, custom)"
   xmlns:inkscape="http://www.inkscape.org/namespaces/inkscape"
   xmlns:sodipodi="http://sodipodi.sourceforge.net/DTD/sodipodi-0.dtd"
   xmlns="http://www.w3.org/2000/svg"
   xmlns:svg="http://www.w3.org/2000/svg">
  <defs
     id="defs1" />
  <sodipodi:namedview
     id="namedview1"
     pagecolor="#ffffff"
     bordercolor="#000000"
     borderopacity="0.25"
     inkscape:showpageshadow="2"
     inkscape:pageopacity="0.0"
     inkscape:pagecheckerboard="0"
     inkscape:deskcolor="#d1d1d1"
     inkscape:zoom="1.6347656"
     inkscape:cx="49.242533"
     inkscape:cy="63.617682"
     inkscape:window-width="973"
     inkscape:window-height="675"
     inkscape:window-x="0"
     inkscape:window-y="0"
     inkscape:window-maximized="1"
     inkscape:current-layer="svg2" />
  <metadata
     id="metadata7" />
  <g
     id="layer1"
     transform="translate(0,-924.36216)"
     style="fill:#303446">
    <path
       style="fill:#303446;fill-opacity:1;fill-rule:evenodd;stroke:#000;stroke-width:0;stroke-linecap:butt;stroke-linejoin:round;stroke-miterlimit:4;stroke-dasharray:none;stroke-opacity:1"
       id="path4221"
       d="m 16.582008,1046.8836 0,-107.68789 c 0.268678,-7.88583 2.821127,-11.47031 7.254326,-11.67513 l 83.521626,-0.15807 c 2.76636,-0.0342 3.22403,2.60341 3.22403,5.26085 L 110.405,1042.9681 c 0.20067,4.0092 -3.08981,3.9942 -3.08981,3.9942 l -6.90542,0.1083 c -0.18732,4.2167 -0.26937,4.387 -3.224141,4.2676 l -76.439105,0 c -3.907185,0 -4.164519,0.1998 -4.164519,-4.455 z" />
    <path
       style="fill:#303446;fill-opacity:1;fill-rule:evenodd;stroke:#000;stroke-width:0;stroke-linecap:round;stroke-linejoin:round;stroke-miterlimit:4;stroke-dasharray:none;stroke-opacity:1"
       id="path4258"
       d="m 22.29891,937.54569 73.639178,0 c 5.750212,0.0985 5.128952,2.68325 5.171952,9.6779 l 0.18187,94.28241 c 1.82365,0.1448 4.62079,-1.8836 4.58597,-5.1073 l -0.18187,-96.83984 c 0.15109,-6.45263 -1.3372,-6.45263 -4.30125,-6.71744 l -75.30503,0 c -2.867481,-0.1804 -3.639719,0.84201 -3.790797,4.70427 z" />
    <path
       id="path4"
       d="m 88,1008.4076 0,7.9091 q 0,1.6479 -1.153415,2.801 -1.1534,1.1535 -2.801125,1.1535 l -17.13637,0 0,17.1366 q 0,1.6475 -1.153401,2.8009 -1.153414,1.1535 -2.801139,1.1535 l -7.90909,0 q -1.647735,0 -2.801139,-1.1535 -1.153411,-1.1534 -1.153411,-2.8009 l 0,-17.1366 -17.13636,0 q -1.647725,0 -2.801135,-1.1535 Q 30,1017.9646 30,1016.3167 l 0,-7.9091 q 0,-1.6477 1.153415,-2.8011 1.15341,-1.1535 2.801135,-1.1535 l 17.13636,0 0,-17.13635 q 0,-1.64771 1.153411,-2.80112 1.153404,-1.15342 2.801139,-1.15342 l 7.90909,0 q 1.647725,0 2.801139,1.15342 1.153401,1.15341 1.153401,2.80112 l 0,17.13635 17.13637,0 q 1.647725,0 2.801125,1.1535 Q 88,1006.7599 88,1008.4076 Z"
       style="fill:#303446;fill-opacity:1" />
    <rect
       style="fill:#303446;fill-opacity:1;fill-rule:evenodd;stroke:none;stroke-width:0;stroke-linecap:round;stroke-linejoin:round;stroke-miterlimit:4;stroke-dasharray:none;stroke-opacity:1"
       id="rect4139"
       width="51.482"
       height="6"
       x="33.259"
       y="951.362"
       ry=".9" />
  </g>
  <path
     style="fill:#303446;stroke-width:0.152927"
     d="m 53.813164,116.70999 c -1.185877,-0.44729 -2.171754,-1.48816 -2.487592,-2.62636 -0.1153,-0.4155 -0.170017,-3.44292 -0.170597,-9.43867 l -8.53e-4,-8.826971 -9.213859,-0.04281 c -8.257068,-0.03836 -9.2615,-0.06923 -9.672641,-0.297278 -0.65867,-0.365344 -1.4252,-1.161217 -1.809162,-1.878416 -0.315172,-0.588708 -0.334345,-0.846106 -0.382213,-5.13115 -0.03285,-2.941172 0.0089,-4.777481 0.120028,-5.275985 0.24081,-1.080438 1.027344,-2.088974 2.011688,-2.579494 l 0.807884,-0.402585 h 9.069138 9.069137 v -8.92701 c 0,-9.783879 -0.01352,-9.625006 0.918983,-10.802383 0.255213,-0.322232 0.820122,-0.763328 1.255355,-0.980213 l 0.79133,-0.394337 h 4.731203 c 3.212824,0 4.925941,0.05834 5.337997,0.1818 0.799603,0.239567 1.999001,1.333914 2.35546,2.149156 0.265315,0.606786 0.287768,1.268116 0.329728,9.712055 l 0.04502,9.060932 8.901212,8.53e-4 c 5.49936,5.26e-4 9.112939,0.05966 9.455214,0.154738 0.73901,0.205276 1.868183,1.221175 2.26234,2.035394 0.302715,0.625327 0.318662,0.904815 0.318662,5.585029 0,3.834159 -0.04663,5.038359 -0.21026,5.429984 -0.331124,0.792489 -1.171879,1.644525 -2.00607,2.032989 l -0.765749,0.356591 -8.976642,0.0015 -8.976643,0.0015 -0.04606,9.060931 c -0.05092,10.01696 -0.0039,9.53961 -1.058073,10.74026 -0.283266,0.32262 -0.859617,0.74705 -1.280779,0.94317 -0.751939,0.35016 -0.85124,0.35641 -5.506489,0.34645 -3.233216,-0.007 -4.892095,-0.0672 -5.216705,-0.18966 z"
     id="path1" />
  <path
     style="fill:#303446;stroke-width:0.152927"
     d="m 33.568109,32.539513 c -0.30657,-0.389741 -0.32434,-0.558904 -0.278722,-2.653257 0.03511,-1.61192 0.107371,-2.30749 0.258609,-2.489334 0.193503,-0.232662 2.183346,-0.252358 25.495217,-0.252358 24.842353,0 25.288107,0.0052 25.443641,0.295801 0.08961,0.167429 0.158307,1.325093 0.158307,2.667553 0,2.27754 -0.0135,2.381208 -0.339882,2.609814 -0.304259,0.213112 -2.963752,0.238063 -25.374802,0.238063 H 33.895556 Z"
     id="path2" />
  <path
     style="fill:#a6d189;stroke-width:0.152927"
     d="m 17.663082,126.65843 c -0.210274,-0.10457 -0.519952,-0.46484 -0.688172,-0.80062 -0.304189,-0.60718 -0.305854,-0.91595 -0.305854,-56.734751 0,-53.224069 0.01412,-56.203278 0.273309,-57.653525 0.756356,-4.2321189 2.036236,-6.4593328 4.373487,-7.6106279 l 1.003907,-0.4945094 6.426739,-0.096805 c 3.534707,-0.053243 22.868005,-0.104856 42.962885,-0.1146956 l 36.536147,-0.01789 0.64869,0.3801562 c 0.75513,0.4425361 1.20269,1.2427683 1.46082,2.6119155 0.22963,1.2179685 0.0345,113.1494522 -0.19886,114.1029222 -0.0863,0.35254 -0.39475,0.91885 -0.68544,1.25845 -0.82444,0.96316 -1.43994,1.08264 -5.57759,1.08264 h -3.48264 l -0.0754,0.49701 c -0.0415,0.27336 -0.10909,0.99243 -0.1503,1.59794 -0.0766,1.12561 -0.262867,1.66113 -0.692485,1.99098 -0.358761,0.27545 -81.275365,0.27684 -81.829263,10e-4 z m 85.374198,-9.83859 c 0.94421,-0.47938 1.74089,-1.26312 2.26313,-2.22637 l 0.52516,-0.96862 -0.0356,-50.577982 C 105.75143,8.3958104 105.79271,11.095097 104.97512,9.7722154 104.51381,9.0257987 103.71344,8.672822 102.0522,8.4831648 101.07023,8.3710559 88.742452,8.3344614 62.470729,8.3656685 l -38.155317,0.045323 -0.53516,0.3143763 c -0.294337,0.1729069 -0.685316,0.5820662 -0.868841,0.909243 -0.346297,0.6173572 -0.660515,2.0600332 -0.660515,3.0326352 v 0.56095 l 37.123059,0.0012 c 24.974697,7.77e-4 37.448349,0.05324 38.117084,0.160322 2.031238,0.325248 2.928951,1.123404 3.315231,2.947572 0.16088,0.759722 0.21984,10.680818 0.30272,50.929774 l 0.10292,49.986246 0.6655,-0.0912 c 0.36602,-0.0502 0.88797,-0.20417 1.15987,-0.34222 z m -38.711871,0.0122 c 0.980803,-0.33419 1.731245,-1.01679 2.2264,-2.02514 l 0.43027,-0.87621 0.04612,-8.98446 0.04612,-8.984472 8.823658,-8.53e-4 c 5.60662,-5.41e-4 9.031334,-0.05853 9.393272,-0.159049 0.87168,-0.242087 1.813888,-1.049361 2.291233,-1.963104 l 0.427086,-0.817535 -0.0034,-4.9909 c -0.003,-4.499781 -0.0308,-5.051094 -0.282209,-5.602609 -0.419473,-0.920192 -1.010304,-1.538276 -1.889028,-1.976162 L 85.04389,80.057348 H 76.0591 67.074309 l -0.04612,-8.984469 -0.04612,-8.984468 -0.458782,-0.917546 c -0.507499,-1.014979 -1.394213,-1.796 -2.336001,-2.057558 -0.820352,-0.227832 -9.692394,-0.210922 -10.462952,0.01994 -0.759986,0.227697 -1.870526,1.198276 -2.308994,2.017991 -0.336014,0.628178 -0.337904,0.676729 -0.380531,9.768711 l -0.04284,9.137396 h -8.885653 c -6.368159,0 -9.055723,0.05095 -9.485924,0.179845 -0.759985,0.227696 -1.870525,1.198276 -2.308993,2.017991 -0.323844,0.605426 -0.339669,0.824279 -0.385904,5.336822 -0.04066,3.968381 -0.0098,4.837786 0.197269,5.54993 0.305644,1.051381 1.114649,1.979262 2.144849,2.460018 l 0.764636,0.356826 8.979861,0.0015 8.979859,0.0015 0.04284,9.137393 c 0.04018,8.57081 0.0605,9.17059 0.327582,9.67264 0.550276,1.03438 1.4927,1.83141 2.54342,2.15102 0.210819,0.0641 2.487177,0.12252 5.058573,0.12975 3.818242,0.0107 4.800971,-0.0297 5.361015,-0.22052 z M 84.492234,32.802867 c 0.280637,-0.280636 0.305854,-0.509756 0.305854,-2.778878 0,-2.086568 -0.03955,-2.516726 -0.253092,-2.752688 -0.243252,-0.268791 -1.238438,-0.279664 -25.596567,-0.279664 -23.387827,0 -25.359672,0.01951 -25.553361,0.252894 -0.15912,0.191731 -0.209883,0.860764 -0.209883,2.766201 0,2.456829 0.0081,2.519873 0.361027,2.805646 0.352195,0.28519 0.976188,0.292344 25.500598,0.292344 24.935668,0 25.14205,-0.0025 25.445424,-0.305855 z"
     id="path3" />
</svg>
