<?xml version="1.0" encoding="UTF-8" standalone="no"?>
<svg
   id="svg2"
   width="128"
   height="128"
   version="1.1"
   viewBox="0 0 128 128"
   sodipodi:docname="back.svg"
   inkscape:version="1.3.2 (091e20ef0f, 2023-11-25, custom)"
   xmlns:inkscape="http://www.inkscape.org/namespaces/inkscape"
   xmlns:sodipodi="http://sodipodi.sourceforge.net/DTD/sodipodi-0.dtd"
   xmlns:xlink="http://www.w3.org/1999/xlink"
   xmlns="http://www.w3.org/2000/svg"
   xmlns:svg="http://www.w3.org/2000/svg">
  <sodipodi:namedview
     id="namedview1"
     pagecolor="#ffffff"
     bordercolor="#000000"
     borderopacity="0.25"
     inkscape:showpageshadow="2"
     inkscape:pageopacity="0.0"
     inkscape:pagecheckerboard="0"
     inkscape:deskcolor="#d1d1d1"
     inkscape:zoom="1.84375"
     inkscape:cx="63.728814"
     inkscape:cy="64"
     inkscape:window-width="973"
     inkscape:window-height="1005"
     inkscape:window-x="0"
     inkscape:window-y="0"
     inkscape:window-maximized="1"
     inkscape:current-layer="svg2" />
  <defs
     id="defs4">
    <linearGradient
       id="linearGradient4139">
      <stop
         style="stop-color:#175568;stop-opacity:1"
         id="stop4141"
         offset="0" />
      <stop
         style="stop-color:#2ca2c5;stop-opacity:1"
         id="stop4143"
         offset="1" />
    </linearGradient>
    <linearGradient
       id="linearGradient4145"
       x1="25.761"
       x2="102.239"
       y1="988.362"
       y2="988.362"
       gradientUnits="userSpaceOnUse"
       xlink:href="#linearGradient4139" />
  </defs>
  <metadata
     id="metadata7" />
  <g
     id="layer1"
     transform="translate(0,-924.36216)"
     style="fill:#8aadf4;fill-opacity:1">
    <path
       id="path4"
       d="m 100.83687,949.16301 -39.199152,39.19915 39.199152,39.19914 q 1.4026,1.4026 1.4026,3.322 0,1.9193 -1.4026,3.322 l -12.254352,12.2543 q -1.402606,1.4026 -3.321962,1.4026 -1.919356,0 -3.321962,-1.4026 L 27.163138,991.68412 q -1.40261,-1.4026 -1.40261,-3.32196 0,-1.91935 1.40261,-3.32196 l 54.775456,-54.77546 q 1.402606,-1.40261 3.321962,-1.40261 1.919356,0 3.321962,1.40261 l 12.254352,12.25435 q 1.4026,1.4026 1.4026,3.32196 0,1.91935 -1.4026,3.32196 z"
       style="fill:#8aadf4;fill-opacity:1" />
  </g>
</svg>
