<?xml version="1.0" encoding="UTF-8" standalone="no"?>
<svg
   id="svg4"
   width="300"
   height="300"
   x="0"
   y="0"
   fill="#eee"
   enable-background="new 0 0 100 100"
   version="1.1"
   viewBox="0 0 100 100"
   xml:space="preserve"
   sodipodi:docname="close-for-dark-theme.svg"
   inkscape:version="1.3.2 (091e20ef0f, 2023-11-25, custom)"
   xmlns:inkscape="http://www.inkscape.org/namespaces/inkscape"
   xmlns:sodipodi="http://sodipodi.sourceforge.net/DTD/sodipodi-0.dtd"
   xmlns="http://www.w3.org/2000/svg"
   xmlns:svg="http://www.w3.org/2000/svg"><defs
     id="defs1" /><sodipodi:namedview
     id="namedview1"
     pagecolor="#ffffff"
     bordercolor="#000000"
     borderopacity="0.25"
     inkscape:showpageshadow="2"
     inkscape:pageopacity="0.0"
     inkscape:pagecheckerboard="0"
     inkscape:deskcolor="#d1d1d1"
     inkscape:zoom="0.9175"
     inkscape:cx="51.771117"
     inkscape:cy="156.40327"
     inkscape:window-width="1257"
     inkscape:window-height="674"
     inkscape:window-x="0"
     inkscape:window-y="0"
     inkscape:window-maximized="1"
     inkscape:current-layer="svg4" /><metadata
     id="metadata10" /><path
     id="path2"
     d="m 29.082441,32.408474 0.675796,-0.664406 c 2.800483,-2.751801 7.338729,-2.751801 10.139212,0 l 8.831365,8.681779 8.83061,-8.682521 c 2.800483,-2.751801 7.341746,-2.751801 10.139212,0 l 0.675796,0.664407 c 2.800483,2.753284 2.800483,7.216525 0,9.969809 l -8.829856,8.682521 8.83061,8.681038 c 2.800484,2.752543 2.800484,7.215784 0,9.969068 l -0.675796,0.664407 c -2.797466,2.752542 -7.338729,2.752542 -10.139212,0 l -8.831364,-8.681038 -8.830611,8.681038 c -2.800483,2.752542 -7.338728,2.752542 -10.139211,0 l -0.675797,-0.664407 c -2.800483,-2.753284 -2.800483,-7.216525 0,-9.969068 l 8.829856,-8.681038 -8.83061,-8.681779 c -2.800483,-2.753284 -2.800483,-7.216526 0,-9.96981 z m 19.646373,55.727119 c -20.827509,0 -37.711865,-16.599788 -37.711865,-37.07553 0,-20.476483 16.884356,-37.077012 37.711865,-37.077012 20.827508,0 37.711864,16.600529 37.711864,37.077012 0,20.475742 -16.884356,37.07553 -37.711864,37.07553 z"
     style="clip-rule:evenodd;fill-rule:evenodd;stroke-width:0.74785435;fill:#cad3f5;fill-opacity:1" /></svg>
