<?xml version="1.0" encoding="UTF-8" standalone="no"?>
<svg
   id="svg2"
   width="128"
   height="128"
   version="1"
   sodipodi:docname="publisher.svg"
   inkscape:version="1.3.2 (091e20ef0f, 2023-11-25, custom)"
   xmlns:inkscape="http://www.inkscape.org/namespaces/inkscape"
   xmlns:sodipodi="http://sodipodi.sourceforge.net/DTD/sodipodi-0.dtd"
   xmlns="http://www.w3.org/2000/svg"
   xmlns:svg="http://www.w3.org/2000/svg">
  <defs
     id="defs1" />
  <sodipodi:namedview
     id="namedview1"
     pagecolor="#ffffff"
     bordercolor="#000000"
     borderopacity="0.25"
     inkscape:showpageshadow="2"
     inkscape:pageopacity="0.0"
     inkscape:pagecheckerboard="0"
     inkscape:deskcolor="#d1d1d1"
     inkscape:zoom="2.1503906"
     inkscape:cx="55.571299"
     inkscape:cy="24.879201"
     inkscape:window-width="2073"
     inkscape:window-height="1316"
     inkscape:window-x="0"
     inkscape:window-y="0"
     inkscape:window-maximized="1"
     inkscape:current-layer="svg2" />
  <path
     id="path4"
     d="M 16.591055,0 H 107.84186 V 49.773165 H 16.591055 Z"
     style="fill:#cad3f5;fill-opacity:1;stroke-width:8.29552" />
  <rect
     id="rect6"
     width="107.84186"
     height="82.955284"
     x="8.2955275"
     y="45.04472"
     rx="5.3920927"
     ry="6.9184694"
     style="fill:#6e738d;fill-opacity:1;stroke-width:8.29552" />
  <rect
     style="fill:#8087a2;fill-opacity:1;stroke-width:8.29552"
     id="rect4152"
     width="124.43291"
     height="24.886581"
     x="0"
     y="41.477646"
     rx="4.446403"
     ry="4.1477637" />
  <rect
     style="opacity:1;fill:#5b6078;fill-opacity:1;stroke:none;stroke-width:24.8867;stroke-miterlimit:4;stroke-dasharray:none;stroke-opacity:1"
     id="rect4188"
     width="33.18211"
     height="4.1477637"
     x="24.886581"
     y="12.443291" />
  <path
     style="opacity:1;fill:#cad3f5;fill-opacity:1;stroke:none;stroke-width:33.1821;stroke-linecap:round;stroke-linejoin:round;stroke-miterlimit:4;stroke-dasharray:none;stroke-opacity:1"
     id="path4172"
     d="m 20.738819,74.659748 a 4.1477638,4.1477638 0 0 0 -4.147764,4.147764 4.1477638,4.1477638 0 0 0 4.147764,4.147764 4.1477638,4.1477638 0 0 0 4.147764,-4.147764 4.1477638,4.1477638 0 0 0 -4.147764,-4.147764 z m 16.591055,0 a 4.1477638,4.1477638 0 0 0 -4.147763,4.147764 4.1477638,4.1477638 0 0 0 4.147763,4.147764 4.1477638,4.1477638 0 0 0 4.147764,-4.147764 4.1477638,4.1477638 0 0 0 -4.147764,-4.147764 z m 16.591056,0 a 4.1477638,4.1477638 0 0 0 -4.147765,4.147764 4.1477638,4.1477638 0 0 0 4.147765,4.147764 4.1477638,4.1477638 0 0 0 4.147763,-4.147764 4.1477638,4.1477638 0 0 0 -4.147763,-4.147764 z m 16.591055,0 a 4.1477638,4.1477638 0 0 0 -4.147764,4.147764 4.1477638,4.1477638 0 0 0 4.147764,4.147764 4.1477638,4.1477638 0 0 0 4.147763,-4.147764 4.1477638,4.1477638 0 0 0 -4.147763,-4.147764 z m 16.591055,0 a 4.1477638,4.1477638 0 0 0 -4.147764,4.147764 4.1477638,4.1477638 0 0 0 4.147764,4.147764 4.1477638,4.1477638 0 0 0 4.147763,-4.147764 4.1477638,4.1477638 0 0 0 -4.147763,-4.147764 z m 16.59105,0 a 4.1477638,4.1477638 0 0 0 -4.147759,4.147764 4.1477638,4.1477638 0 0 0 4.147759,4.147764 4.1477638,4.1477638 0 0 0 4.14777,-4.147764 4.1477638,4.1477638 0 0 0 -4.14777,-4.147764 z" />
  <path
     id="path4188"
     d="m 20.738819,91.250803 a 4.1477638,4.1477638 0 0 0 -4.147764,4.147765 4.1477638,4.1477638 0 0 0 4.147764,4.147763 4.1477638,4.1477638 0 0 0 4.147764,-4.147763 4.1477638,4.1477638 0 0 0 -4.147764,-4.147765 z m 16.591055,0 a 4.1477638,4.1477638 0 0 0 -4.147763,4.147765 4.1477638,4.1477638 0 0 0 4.147763,4.147763 4.1477638,4.1477638 0 0 0 4.147764,-4.147763 4.1477638,4.1477638 0 0 0 -4.147764,-4.147765 z m 16.591056,0 a 4.1477638,4.1477638 0 0 0 -4.147765,4.147765 4.1477638,4.1477638 0 0 0 4.147765,4.147763 4.1477638,4.1477638 0 0 0 4.147763,-4.147763 4.1477638,4.1477638 0 0 0 -4.147763,-4.147765 z m 16.591055,0 a 4.1477638,4.1477638 0 0 0 -4.147764,4.147765 4.1477638,4.1477638 0 0 0 4.147764,4.147763 4.1477638,4.1477638 0 0 0 4.147763,-4.147763 4.1477638,4.1477638 0 0 0 -4.147763,-4.147765 z m 16.591055,0 a 4.1477638,4.1477638 0 0 0 -4.147764,4.147765 4.1477638,4.1477638 0 0 0 4.147764,4.147763 4.1477638,4.1477638 0 0 0 4.147763,-4.147763 4.1477638,4.1477638 0 0 0 -4.147763,-4.147765 z m 16.59105,0 a 4.1477638,4.1477638 0 0 0 -4.147759,4.147765 4.1477638,4.1477638 0 0 0 4.147759,4.147763 4.1477638,4.1477638 0 0 0 4.14777,-4.147763 4.1477638,4.1477638 0 0 0 -4.14777,-4.147765 z"
     style="opacity:1;fill:#cad3f5;fill-opacity:1;stroke:none;stroke-width:33.1821;stroke-linecap:round;stroke-linejoin:round;stroke-miterlimit:4;stroke-dasharray:none;stroke-opacity:1" />
  <path
     style="opacity:1;fill:#cad3f5;fill-opacity:1;stroke:none;stroke-width:33.1821;stroke-linecap:round;stroke-linejoin:round;stroke-miterlimit:4;stroke-dasharray:none;stroke-opacity:1"
     id="path4190"
     d="m 20.738819,107.84186 a 4.1477638,4.1477638 0 0 0 -4.147764,4.14776 4.1477638,4.1477638 0 0 0 4.147764,4.14776 4.1477638,4.1477638 0 0 0 4.147764,-4.14776 4.1477638,4.1477638 0 0 0 -4.147764,-4.14776 z m 16.591055,0 a 4.1477638,4.1477638 0 0 0 -4.147763,4.14776 4.1477638,4.1477638 0 0 0 4.147763,4.14776 4.1477638,4.1477638 0 0 0 4.147764,-4.14776 4.1477638,4.1477638 0 0 0 -4.147764,-4.14776 z m 16.591056,0 a 4.1477638,4.1477638 0 0 0 -4.147765,4.14776 4.1477638,4.1477638 0 0 0 4.147765,4.14776 4.1477638,4.1477638 0 0 0 4.147763,-4.14776 4.1477638,4.1477638 0 0 0 -4.147763,-4.14776 z m 16.591055,0 a 4.1477638,4.1477638 0 0 0 -4.147764,4.14776 4.1477638,4.1477638 0 0 0 4.147764,4.14776 4.1477638,4.1477638 0 0 0 4.147763,-4.14776 4.1477638,4.1477638 0 0 0 -4.147763,-4.14776 z m 16.591055,0 a 4.1477638,4.1477638 0 0 0 -4.147764,4.14776 4.1477638,4.1477638 0 0 0 4.147764,4.14776 4.1477638,4.1477638 0 0 0 4.147763,-4.14776 4.1477638,4.1477638 0 0 0 -4.147763,-4.14776 z m 16.59105,0 a 4.1477638,4.1477638 0 0 0 -4.147759,4.14776 4.1477638,4.1477638 0 0 0 4.147759,4.14776 4.1477638,4.1477638 0 0 0 4.14777,-4.14776 4.1477638,4.1477638 0 0 0 -4.14777,-4.14776 z" />
  <rect
     style="opacity:1;fill:#cad3f5;fill-opacity:1;stroke:none;stroke-width:33.1821;stroke-linecap:round;stroke-linejoin:round;stroke-miterlimit:4;stroke-dasharray:none;stroke-opacity:1"
     id="rect4193"
     width="16.591055"
     height="8.2955275"
     x="53.920929"
     y="107.84187" />
  <rect
     id="rect4195"
     width="16.591055"
     height="4.1477637"
     x="24.886581"
     y="20.738821"
     style="opacity:1;fill:#5b6078;fill-opacity:1;stroke:none;stroke-width:24.8867;stroke-miterlimit:4;stroke-dasharray:none;stroke-opacity:1" />
  <rect
     style="opacity:1;fill:#5b6078;fill-opacity:1;stroke:none;stroke-width:24.8867;stroke-miterlimit:4;stroke-dasharray:none;stroke-opacity:1"
     id="rect4197"
     width="8.2955275"
     height="4.1477637"
     x="24.886581"
     y="29.034348" />
  <rect
     id="rect4201"
     width="33.18211"
     height="4.1477637"
     x="66.36422"
     y="12.443291"
     style="opacity:1;fill:#5b6078;fill-opacity:1;stroke:none;stroke-width:24.8867;stroke-miterlimit:4;stroke-dasharray:none;stroke-opacity:1" />
  <rect
     style="opacity:1;fill:#5b6078;fill-opacity:1;stroke:none;stroke-width:24.8867;stroke-miterlimit:4;stroke-dasharray:none;stroke-opacity:1"
     id="rect4203"
     width="24.886581"
     height="4.1477637"
     x="49.773163"
     y="20.738821" />
  <rect
     id="rect4205"
     width="24.886581"
     height="4.1477637"
     x="66.36422"
     y="29.034348"
     style="opacity:1;fill:#5b6078;fill-opacity:1;stroke:none;stroke-width:24.8867;stroke-miterlimit:4;stroke-dasharray:none;stroke-opacity:1" />
  <rect
     style="opacity:1;fill:#5b6078;fill-opacity:1;stroke:none;stroke-width:24.8867;stroke-miterlimit:4;stroke-dasharray:none;stroke-opacity:1"
     id="rect4207"
     width="16.591055"
     height="4.1477637"
     x="82.955284"
     y="20.738821" />
  <rect
     style="opacity:1;fill:#5b6078;fill-opacity:1;stroke:none;stroke-width:24.8867;stroke-miterlimit:4;stroke-dasharray:none;stroke-opacity:1"
     id="rect4209"
     width="16.591055"
     height="4.1477637"
     x="41.477642"
     y="29.034348" />
  <circle
     id="path1"
     style="fill:#cad3f5;stroke:#8aadf4;stroke-width:8.29552"
     cx="58.39185"
     cy="92.361412"
     r="0" />
</svg>
