<?xml version="1.0" encoding="UTF-8" standalone="no"?>
<svg
   id="svg2"
   width="128"
   height="128"
   version="1.1"
   viewBox="0 0 128 128"
   sodipodi:docname="user_profile.svg"
   inkscape:version="1.3.2 (091e20ef0f, 2023-11-25, custom)"
   xmlns:inkscape="http://www.inkscape.org/namespaces/inkscape"
   xmlns:sodipodi="http://sodipodi.sourceforge.net/DTD/sodipodi-0.dtd"
   xmlns:xlink="http://www.w3.org/1999/xlink"
   xmlns="http://www.w3.org/2000/svg"
   xmlns:svg="http://www.w3.org/2000/svg">
  <sodipodi:namedview
     id="namedview1"
     pagecolor="#ffffff"
     bordercolor="#000000"
     borderopacity="0.25"
     inkscape:showpageshadow="2"
     inkscape:pageopacity="0.0"
     inkscape:pagecheckerboard="0"
     inkscape:deskcolor="#d1d1d1"
     inkscape:zoom="3.0411116"
     inkscape:cx="18.743146"
     inkscape:cy="65.601013"
     inkscape:window-width="1540"
     inkscape:window-height="1058"
     inkscape:window-x="0"
     inkscape:window-y="0"
     inkscape:window-maximized="1"
     inkscape:current-layer="layer1" />
  <defs
     id="defs4">
    <radialGradient
       id="radialGradient3297"
       cx="63.912"
       cy="115.709"
       r="63.912"
       fx="63.912"
       fy="115.709"
       gradientTransform="matrix(1,0,0,0.08241757,0.08779144,1037.1837)"
       gradientUnits="userSpaceOnUse"
       xlink:href="#linearGradient3291" />
    <linearGradient
       id="linearGradient3291">
      <stop
         style="stop-color:#000;stop-opacity:1"
         id="stop3293"
         offset="0" />
      <stop
         style="stop-color:#000;stop-opacity:0"
         id="stop3295"
         offset="1" />
    </linearGradient>
    <linearGradient
       id="linearGradient2898"
       x1="-36.688"
       x2="8.878"
       y1="68.546"
       y2="68.546"
       gradientTransform="matrix(0.976425,0,0,0.976425,89.075105,893.6452)"
       gradientUnits="userSpaceOnUse"
       xlink:href="#linearGradient2892" />
    <linearGradient
       id="linearGradient2892">
      <stop
         style="stop-color:white;stop-opacity:1"
         id="stop2894"
         offset="0" />
      <stop
         style="stop-color:white;stop-opacity:0"
         id="stop2896"
         offset="1" />
    </linearGradient>
    <linearGradient
       id="linearGradient2911"
       x1="-140.058"
       x2="-68.625"
       y1="162.549"
       y2="150.664"
       gradientTransform="matrix(0.976425,0,0,0.976425,188.35256,870.69844)"
       gradientUnits="userSpaceOnUse"
       xlink:href="#linearGradient2892" />
    <linearGradient
       id="linearGradient2915"
       x1="-185.313"
       x2="-68.625"
       y1="159.35"
       y2="150.664"
       gradientTransform="matrix(-0.976425,0,0,0.976425,-59.152135,870.69844)"
       gradientUnits="userSpaceOnUse"
       xlink:href="#linearGradient2892" />
  </defs>
  <metadata
     id="metadata7" />
  <g
     id="layer1"
     transform="translate(0,-924.36216)"
     style="fill:#8aadf4">
    <path
       id="path2878"
       d="m 63.948197,925.63267 c -5.70045,0.0728 -11.221205,2.75775 -15.744847,9.03193 -12.470799,3.34154 -15.686408,21.0623 -16.782298,33.38151 -1.392318,15.65145 6.615934,25.48852 17.514616,29.71993 -0.158808,1.77639 -0.554257,3.28946 -1.098477,4.21086 -2.047835,3.467 -6.697365,6.4745 -14.73791,8.7573 -8.970401,2.5467 -16.085492,5.0215 -21.237235,9.5506 -4.5608791,4.0097 -7.506264,8.6462 -7.506264,14.5854 0,15.4158 119.337398,16.2319 119.337398,0 1e-5,-5.9392 -2.94538,-10.5757 -7.50626,-14.5854 -5.09453,-4.4788 -12.20917,-7.1096 -21.237241,-9.6727 -8.100097,-2.2996 -12.746677,-5.2124 -14.768423,-8.6352 -0.675295,-1.1433 -1.095139,-3.16643 -1.159504,-5.52293 9.916113,-4.63199 17.761727,-13.57517 18.918227,-26.76014 1.835883,-20.9304 -16.890433,-44.27964 -33.991782,-44.06116 z"
       style="fill:#8aadf4;fill-opacity:1;stroke:none;stroke-width:2;stroke-miterlimit:4;stroke-dasharray:none;stroke-opacity:1" />
  </g>
</svg>
