<?xml version="1.0" encoding="UTF-8" standalone="no"?>
<svg
   width="512"
   height="512"
   preserveAspectRatio="xMidYMid meet"
   version="1.1"
   viewBox="0 0 512 512"
   id="svg6"
   sodipodi:docname="news.svg"
   inkscape:version="1.3.2 (091e20ef0f, 2023-11-25, custom)"
   xmlns:inkscape="http://www.inkscape.org/namespaces/inkscape"
   xmlns:sodipodi="http://sodipodi.sourceforge.net/DTD/sodipodi-0.dtd"
   xmlns="http://www.w3.org/2000/svg"
   xmlns:svg="http://www.w3.org/2000/svg">
  <defs
     id="defs6" />
  <sodipodi:namedview
     id="namedview6"
     pagecolor="#ffffff"
     bordercolor="#000000"
     borderopacity="0.25"
     inkscape:showpageshadow="2"
     inkscape:pageopacity="0.0"
     inkscape:pagecheckerboard="0"
     inkscape:deskcolor="#d1d1d1"
     inkscape:zoom="1.0751953"
     inkscape:cx="191.5931"
     inkscape:cy="239.49137"
     inkscape:window-width="2074"
     inkscape:window-height="1316"
     inkscape:window-x="0"
     inkscape:window-y="0"
     inkscape:window-maximized="1"
     inkscape:current-layer="svg6" />
  <path
     fill="#96A9B2"
     d="M223.308 219.461H25.22v253.083l.066.005c.956 15.068 13.474 26.996 28.783 26.996c13.906 0 25.511-9.839 28.24-22.935l140.999 10.039V219.461z"
     id="path1"
     style="fill:#7f849c" />
  <path
     fill="#E5E4DF"
     d="M474.925 91.014h-1.366l-49.6-42.842v23.241l.011 19.601h-5.511l-13.962-48.905V20.448a8.655 8.655 0 0 0-8.655-8.655H82.765l.172 458.903l-.019.019c-.01 15.924-12.922 28.83-28.848 28.83H454.73c15.933 0 28.849-12.916 28.849-28.849V99.669a8.655 8.655 0 0 0-8.654-8.655z"
     style="fill:#cdd6f4;fill-opacity:1"
     id="path2" />
  <path
     fill="#96A9B2"
     d="M431.531 200.87H134.358v-8.655h297.173v8.655zm0 256.587H134.358v8.655h297.173v-8.655zM177.632 53.691h-43.273v8.655h43.273v-8.655z"
     id="path3"
     style="fill:#89b4fa" />
  <path
     fill="#BFBCAF"
     d="M290.716 297.353H134.358v-17.309h156.358v17.309zm.059 25.964H134.417v17.309h156.358v-17.309zm0 43.273H134.417v17.309h156.358V366.59zm0 43.273H134.417v17.309h156.358v-17.309zm140.816 0H316.74v17.309h114.851v-17.309z"
     id="path4"
     style="fill:#9399b2" />
  <path
     fill="#597B91"
     d="M376.688 91.616v35.219h-.061c-.313 4.494-4.019 8.054-8.593 8.054h-225.02c-4.573 0-8.28-3.56-8.594-8.054h-.061V91.616a8.655 8.655 0 0 1 8.655-8.655h225.021a8.653 8.653 0 0 1 8.653 8.655zM142.81 254.08h139.515a8.45 8.45 0 0 0 8.451-8.451v-17.716a8.45 8.45 0 0 0-8.451-8.451H142.81a8.45 8.45 0 0 0-8.451 8.451v17.716a8.45 8.45 0 0 0 8.451 8.451zm288.781-25.966a8.654 8.654 0 0 0-8.654-8.652l-.014.001l-.001-.001h-97.549l-.001.001a8.654 8.654 0 0 0-8.631 8.651v147.131a8.653 8.653 0 0 0 8.631 8.653l.001.001h97.549l.001-.001l.014.001a8.655 8.655 0 0 0 8.655-8.655l-.001-147.13z"
     id="path5"
     style="fill:#6c7086" />
  <path
     fill="#BFBCAF"
     d="M482.646 95.787h-80.199V14.971l78.464 78.463z"
     id="path6"
     style="fill:#7f849c" />
</svg>
